# xmcd CD database file
#
# Track frame offsets:
#	150
#	14570
#	31001
#	50074
#	66374
#	91118
#
# Disc length: 1756 seconds
#
# Revision: 0
# Processed by: cddbd v1.5.1PL0 Copyright (c) Steve Scherf et al.
# Submitted via: CDex 1.50
#
DISCID=4706da06
DTITLE=BUSTED - THUNDER BIRDS
DYEAR=2004
DGENRE=Pop
TTITLE0=THUNDERBIRDS ARE GO
TTITLE1=3AM
TTITLE2=RUNAWAY TRAIN
TTITLE3=3AM (acoustic version.)
TTITLE4=THUNDERBIRDS ARE GO (acoustic ver.)
TTITLE5=DATA
EXTD=YEAR: 2004
EXTT0=
EXTT1=
EXTT2=
EXTT3=
EXTT4=
EXTT5=
PLAYORDER=
